<svg xmlns="http://www.w3.org/2000/svg" viewBox="0 0 432.42 112.85"><defs><style>.cls-1{fill:none;}.cls-2,.cls-3,.cls-5{isolation:isolate;}.cls-3,.cls-5{font-size:85.64px;}.cls-3,.cls-5,.cls-7,.cls-8{fill:#fff;}.cls-3{font-family:Montserrat-Black, Montserrat;font-weight:800;}.cls-4{letter-spacing:-0.01em;}.cls-5{font-family:Montserrat-ThinItalic, Montserrat;font-weight:200;font-style:italic;}.cls-6{letter-spacing:-0.01em;}.cls-7{fill-rule:evenodd;}</style></defs><g id="Capa_2" data-name="Capa 2"><g id="Capa_1-2" data-name="Capa 1"><rect class="cls-1" x="38.86" y="26.35" width="356.51" height="75.01"/><g class="cls-2"><text class="cls-3" transform="translate(39.08 89.72)"><tspan class="cls-4">B</tspan><tspan x="64.91" y="0">Y</tspan></text><text class="cls-5" transform="translate(166.05 89.72)"><tspan class="cls-6">P</tspan><tspan class="cls-4" x="59.95" y="0">L</tspan><tspan x="108.33" y="0">US</tspan></text></g><path class="cls-7" d="M432.42,29.06a31.64,31.64,0,0,0-14-23.5c-7.69-5.42-17.63-6.77-26.66-4.51A2.8,2.8,0,0,0,390,3.76c0,.45.45.9.9,1.35a2.73,2.73,0,0,0,1.81.45,27.79,27.79,0,0,1,23,3.62,27.06,27.06,0,0,1,11.75,19.88,2.34,2.34,0,0,0,.91,1.81,1.65,1.65,0,0,0,1.35.45c1.81,0,2.71-.9,2.71-2.26"/><path class="cls-7" d="M413.44,13.25a23.47,23.47,0,0,0-19-3.17,2.81,2.81,0,0,0-1.81,2.71c0,.46.45.91.9,1.36a2.73,2.73,0,0,0,1.81.45,18.5,18.5,0,0,1,15.36,2.71,18.28,18.28,0,0,1,7.68,13.56,2.38,2.38,0,0,0,.91,1.81,1.65,1.65,0,0,0,1.35.45,2.53,2.53,0,0,0,2.26-2.71,22.13,22.13,0,0,0-9.49-17.17"/><path class="cls-7" d="M408,20.93a12.64,12.64,0,0,0-11.29-1.81,2,2,0,0,0-1.36,2.71c0,.45.45.9.9,1.36a2.75,2.75,0,0,0,1.81.45A7.89,7.89,0,0,1,405.76,25c2.26,1.36,3.62,4.07,4.07,6.78a2.34,2.34,0,0,0,.9,1.81,1.68,1.68,0,0,0,1.36.45,2.53,2.53,0,0,0,2.26-2.71A13.43,13.43,0,0,0,408,20.93"/><path class="cls-8" d="M411.19,78.31a5,5,0,1,0,5,5,5,5,0,0,0-5-5m0,8.59a3.62,3.62,0,1,1,3.61-3.62,3.89,3.89,0,0,1-3.61,3.62m1.8-4.07a2,2,0,0,0-1.8-1.81h-1.81v4.52h.9v-.9h.91l.9,1.35h1.35l-.9-1.35c0-.91.45-1.36.45-1.81m-1.8.45h-.91V81.93h.91c.9,0,.9.45.9.45,0,.45,0,.9-.9.9"/><path class="cls-8" d="M2.26,64.3h9.49v9.49A2.13,2.13,0,0,0,14,76.05h4.06a2.13,2.13,0,0,0,2.26-2.26V64.3h9.49a2.13,2.13,0,0,0,2.26-2.25V57.53a2.13,2.13,0,0,0-2.26-2.26H20.33V45.78a2.13,2.13,0,0,0-2.26-2.26H14a2.13,2.13,0,0,0-2.26,2.26v9.49H2.26A2.13,2.13,0,0,0,0,57.53v4.52A2.13,2.13,0,0,0,2.26,64.3"/></g></g></svg>