<svg xmlns="http://www.w3.org/2000/svg" viewBox="0 0 106.9 28.4"><defs><style>.cls-1{fill:#1d70b1;}.cls-2{fill:#06c;}.cls-3{fill:none;}.cls-4,.cls-5,.cls-7{isolation:isolate;}.cls-5,.cls-7{font-size:18.95px;}.cls-10,.cls-11,.cls-5,.cls-7{fill:#fff;}.cls-5{font-family:Montserrat-Black, Montserrat;font-weight:800;}.cls-6{letter-spacing:-0.01em;}.cls-7{font-family:Montserrat-ThinItalic, Montserrat;font-weight:200;font-style:italic;letter-spacing:-0.01em;}.cls-8{letter-spacing:-0.02em;}.cls-9{letter-spacing:0em;}.cls-10{fill-rule:evenodd;}</style></defs><g id="Capa_2" data-name="Capa 2"><g id="Capa_1-2" data-name="Capa 1"><path class="cls-1" d="M90,28.4H5.2V16.9A16.88,16.88,0,0,1,22.1,0h84.8V11.5A16.94,16.94,0,0,1,90,28.4"/><path class="cls-2" d="M89.2,28.4H0V16.9C0,7.6,7.9,0,17.7,0h89.2V11.5c0,9.3-8,16.9-17.7,16.9"/><rect class="cls-3" x="15" y="8.6" width="78.9" height="16.6"/><g class="cls-4"><text class="cls-5" transform="translate(15.05 22.63)"><tspan class="cls-6">B</tspan><tspan x="14.37" y="0">Y</tspan></text><text class="cls-7" transform="translate(43.15 22.63)">P<tspan class="cls-8" x="13.27" y="0">L</tspan><tspan class="cls-9" x="23.97" y="0">US</tspan></text></g><path class="cls-10" d="M102.1,9.2A7,7,0,0,0,99,4a7.24,7.24,0,0,0-5.9-1,.62.62,0,0,0-.4.6c0,.1.1.2.2.3a.6.6,0,0,0,.4.1,6.16,6.16,0,0,1,5.1.8A6,6,0,0,1,101,9.2a.52.52,0,0,0,.2.4.37.37,0,0,0,.3.1c.4,0,.6-.2.6-.5"/><path class="cls-10" d="M97.9,5.7A5.2,5.2,0,0,0,93.7,5a.62.62,0,0,0-.4.6c0,.1.1.2.2.3a.6.6,0,0,0,.4.1,4.09,4.09,0,0,1,3.4.6,4,4,0,0,1,1.7,3,.52.52,0,0,0,.2.4.37.37,0,0,0,.3.1.56.56,0,0,0,.5-.6,4.9,4.9,0,0,0-2.1-3.8"/><path class="cls-10" d="M96.7,7.4A2.8,2.8,0,0,0,94.2,7a.45.45,0,0,0-.3.6c0,.1.1.2.2.3a.6.6,0,0,0,.4.1,1.75,1.75,0,0,1,1.7.3,2.14,2.14,0,0,1,.9,1.5.52.52,0,0,0,.2.4.37.37,0,0,0,.3.1.56.56,0,0,0,.5-.6,3,3,0,0,0-1.4-2.3"/><path class="cls-11" d="M97.4,20.1a1.1,1.1,0,1,0,1.1,1.1,1.11,1.11,0,0,0-1.1-1.1m0,1.9a.8.8,0,1,1,.8-.8.86.86,0,0,1-.8.8m.4-.9a.43.43,0,0,0-.4-.4H97v1h.2v-.2h.2l.2.3h.3l-.2-.3c0-.2.1-.3.1-.4m-.4.1h-.2v-.3h.2c.2,0,.2.1.2.1s0,.2-.2.2"/><path class="cls-11" d="M6.9,17H9v2.1a.47.47,0,0,0,.5.5h.9a.47.47,0,0,0,.5-.5V17H13a.47.47,0,0,0,.5-.5v-1A.47.47,0,0,0,13,15H10.9V12.9a.47.47,0,0,0-.5-.5H9.5a.47.47,0,0,0-.5.5V15H6.9a.47.47,0,0,0-.5.5v1a.47.47,0,0,0,.5.5"/></g></g></svg>